<svg width="106" height="38" viewBox="0 0 106 38" fill="none" xmlns="http://www.w3.org/2000/svg">
<g clip-path="url(#clip0_113_351)">
<path d="M44.3134 28.4376V9.6501H47.3156V11.9845C47.7402 11.197 48.3872 10.5688 49.2565 10.1001C50.1259 9.63135 51.1266 9.39697 52.2588 9.39697C53.5729 9.39697 54.7152 9.6876 55.6856 10.2688C56.6763 10.8501 57.4344 11.6751 57.9601 12.7438C58.506 13.7938 58.7789 15.0501 58.7789 16.5126C58.7789 17.9751 58.506 19.2407 57.9601 20.3095C57.4344 21.3782 56.6763 22.2032 55.6856 22.7845C54.7152 23.347 53.5729 23.6282 52.2588 23.6282C51.167 23.6282 50.1865 23.4126 49.3172 22.9813C48.468 22.5313 47.8211 21.922 47.3763 21.1532V28.4376H44.3134ZM51.5006 21.4345C52.7743 21.4345 53.7852 21.0126 54.5332 20.1688C55.3015 19.3251 55.6856 18.1063 55.6856 16.5126C55.6856 14.9188 55.3015 13.7095 54.5332 12.8845C53.7852 12.0407 52.7743 11.6188 51.5006 11.6188C50.2269 11.6188 49.206 12.0407 48.4377 12.8845C47.6897 13.7095 47.3156 14.9188 47.3156 16.5126C47.3156 18.1063 47.6897 19.3251 48.4377 20.1688C49.206 21.0126 50.2269 21.4345 51.5006 21.4345ZM62.3491 28.4376L64.9875 23.0095L58.8009 9.6501H62.0762L66.6251 20.0845L71.2346 9.6501H74.3885L65.5637 28.4376H62.3491ZM75.3969 23.3751V9.6501H78.4598V15.2188H80.9465L85.5258 9.6501H88.8616L83.8578 15.8095C84.343 16.0157 84.7878 16.3345 85.1922 16.7657C85.6167 17.1782 86.0514 17.7501 86.4962 18.4813L89.5591 23.3751H86.2839L83.7062 19.2688C83.2412 18.5376 82.7863 18.0501 82.3415 17.8063C81.917 17.5626 81.3205 17.4407 80.5523 17.4407H78.4598V23.3751H75.3969ZM103.085 27.0313V23.3751H90.2874V9.6501H93.3504V21.1251H100.265V9.6501H103.328V21.1251H105.693V27.0313H103.085Z" fill="#252525"/>
<path d="M44.3134 28.4376H43.6395V29.0626H44.3134V28.4376ZM44.3134 9.6501V9.0251H43.6395V9.6501H44.3134ZM47.3157 9.6501H47.9896V9.0251H47.3157V9.6501ZM47.3157 11.9845H46.6417L47.9184 12.264L47.3157 11.9845ZM55.6857 10.2688L55.3201 10.7939L55.3254 10.797L55.6857 10.2688ZM57.9601 12.7438L57.347 13.0032L57.35 13.0093L57.3531 13.0153L57.9601 12.7438ZM57.9601 20.3095L57.3511 20.0419L57.349 20.046L57.347 20.0501L57.9601 20.3095ZM55.6857 22.7845L56.0428 23.3145L56.0459 23.3127L55.6857 22.7845ZM49.3172 22.9813L48.9828 23.524L48.991 23.5283L48.9993 23.5325L49.3172 22.9813ZM47.3763 21.1532L47.9701 20.8577L46.7024 21.1532H47.3763ZM47.3763 28.4376V29.0626H48.0502V28.4376H47.3763ZM54.5333 20.1688L54.0183 19.7656L54.0127 19.7719L54.5333 20.1688ZM54.5333 12.8845L54.0127 13.2814L54.0179 13.2873L54.0233 13.293L54.5333 12.8845ZM48.4377 12.8845L47.9228 12.4812L47.9219 12.4822L48.4377 12.8845ZM48.4377 20.1688L47.9171 20.5658L47.9228 20.5721L48.4377 20.1688ZM44.9873 28.4376V9.6501H43.6395V28.4376H44.9873ZM44.3134 10.2751H47.3157V9.0251H44.3134V10.2751ZM46.6417 9.6501V11.9845H47.9896V9.6501H46.6417ZM47.9184 12.264C48.2807 11.592 48.8324 11.0518 49.5953 10.6404L48.9178 9.55978C47.942 10.0859 47.1997 10.8019 46.7129 11.705L47.9184 12.264ZM49.5953 10.6404C50.3493 10.2338 51.2304 10.022 52.2588 10.022V8.77197C51.0229 8.77197 49.9025 9.02885 48.9178 9.55978L49.5953 10.6404ZM52.2588 10.022C53.4616 10.022 54.473 10.2866 55.3201 10.7939L56.0513 9.74382C54.9574 9.08866 53.6843 8.77197 52.2588 8.77197V10.022ZM55.3254 10.797C56.1964 11.3081 56.8711 12.0357 57.347 13.0032L58.5732 12.4845C57.9979 11.3145 57.1562 10.3921 56.0459 9.74067L55.3254 10.797ZM57.3531 13.0153C57.8452 13.9619 58.105 15.1208 58.105 16.5126H59.4528C59.4528 14.9794 59.1668 13.6258 58.5672 12.4724L57.3531 13.0153ZM58.105 16.5126C58.105 17.904 57.8453 19.0742 57.3511 20.0419L58.5691 20.577C59.1666 19.4072 59.4528 18.0462 59.4528 16.5126H58.105ZM57.347 20.0501C56.8711 21.0177 56.1964 21.7452 55.3254 22.2563L56.0459 23.3127C57.1562 22.6612 57.9979 21.7388 58.5732 20.5688L57.347 20.0501ZM55.3285 22.2545C54.4803 22.7461 53.4658 23.0032 52.2588 23.0032V24.2532C53.6801 24.2532 54.9502 23.9478 56.0428 23.3145L55.3285 22.2545ZM52.2588 23.0032C51.2659 23.0032 50.3964 22.8079 49.635 22.4302L48.9993 23.5325C49.9766 24.0173 51.0683 24.2532 52.2588 24.2532V23.0032ZM49.6515 22.4387C48.9076 22.0445 48.3527 21.5189 47.9701 20.8577L46.7825 21.4487C47.2895 22.325 48.0285 23.0182 48.9828 23.524L49.6515 22.4387ZM46.7024 21.1532V28.4376H48.0502V21.1532H46.7024ZM47.3763 27.8126H44.3134V29.0626H47.3763V27.8126ZM51.5007 22.0595C52.9572 22.0595 54.1663 21.5668 55.0538 20.5658L54.0127 19.7719C53.4041 20.4583 52.5915 20.8095 51.5007 20.8095V22.0595ZM55.0481 20.5721C55.9562 19.5747 56.3596 18.1899 56.3596 16.5126H55.0117C55.0117 18.0228 54.6468 19.0755 54.0183 19.7656L55.0481 20.5721ZM56.3596 16.5126C56.3596 14.8366 55.9568 13.457 55.0433 12.476L54.0233 13.293C54.6462 13.962 55.0117 15.0011 55.0117 16.5126H56.3596ZM55.0538 12.4875C54.1663 11.4865 52.9572 10.9938 51.5007 10.9938V12.2438C52.5915 12.2438 53.4041 12.5949 54.0127 13.2814L55.0538 12.4875ZM51.5007 10.9938C50.0442 10.9938 48.829 11.4861 47.9228 12.4812L48.9526 13.2877C49.583 12.5954 50.4097 12.2438 51.5007 12.2438V10.9938ZM47.9219 12.4822C47.0327 13.4629 46.6417 14.84 46.6417 16.5126H47.9896C47.9896 14.9977 48.3467 13.956 48.9535 13.2867L47.9219 12.4822ZM46.6417 16.5126C46.6417 18.1865 47.0332 19.5688 47.9171 20.5658L48.9583 19.7719C48.3461 19.0814 47.9896 18.0262 47.9896 16.5126H46.6417ZM47.9228 20.5721C48.829 21.5672 50.0442 22.0595 51.5007 22.0595V20.8095C50.4097 20.8095 49.583 20.458 48.9526 19.7656L47.9228 20.5721ZM62.3491 28.4376L61.7347 28.1807L61.3061 29.0626H62.3491V28.4376ZM64.9875 23.0095L65.6019 23.2663L65.7237 23.0155L65.6067 22.7628L64.9875 23.0095ZM58.801 9.6501V9.0251H57.7781L58.1818 9.89674L58.801 9.6501ZM62.0762 9.6501L62.701 9.41583L62.5306 9.0251H62.0762V9.6501ZM66.6251 20.0845L66.0003 20.3187L66.621 21.7424L67.2487 20.3214L66.6251 20.0845ZM71.2347 9.6501V9.0251H70.7825L70.611 9.41315L71.2347 9.6501ZM74.3886 9.6501L75.0064 9.89971L75.4172 9.0251H74.3886V9.6501ZM65.5637 28.4376V29.0626H66.0052L66.1815 28.6872L65.5637 28.4376ZM62.9635 28.6945L65.6019 23.2663L64.3731 22.7526L61.7347 28.1807L62.9635 28.6945ZM65.6067 22.7628L59.4201 9.40346L58.1818 9.89674L64.3683 23.2561L65.6067 22.7628ZM58.801 10.2751H62.0762V9.0251H58.801V10.2751ZM61.4514 9.88437L66.0003 20.3187L67.2499 19.8502L62.701 9.41583L61.4514 9.88437ZM67.2487 20.3214L71.8582 9.88705L70.611 9.41315L66.0014 19.8475L67.2487 20.3214ZM71.2347 10.2751H74.3886V9.0251H71.2347V10.2751ZM73.7707 9.40049L64.9458 28.188L66.1815 28.6872L75.0064 9.89971L73.7707 9.40049ZM65.5637 27.8126H62.3491V29.0626H65.5637V27.8126ZM75.3969 23.3751H74.723V24.0001H75.3969V23.3751ZM75.3969 9.6501V9.0251H74.723V9.6501H75.3969ZM78.4598 9.6501H79.1337V9.0251H78.4598V9.6501ZM78.4598 15.2188H77.7859V15.8438H78.4598V15.2188ZM80.9465 15.2188V15.8438H81.2801L81.4824 15.5978L80.9465 15.2188ZM85.5258 9.6501V9.0251H85.1923L84.99 9.27109L85.5258 9.6501ZM88.8617 9.6501L89.3999 10.0262L90.2132 9.0251H88.8617V9.6501ZM83.8579 15.8095L83.3197 15.4333L82.8155 16.0539L83.5771 16.3777L83.8579 15.8095ZM85.1922 16.7657L84.6837 17.1758L84.694 17.1868L84.7048 17.1973L85.1922 16.7657ZM86.4962 18.4813L85.9092 18.7885L85.9134 18.7951L86.4962 18.4813ZM89.5592 23.3751V24.0001H90.7296L90.142 23.0613L89.5592 23.3751ZM86.2839 23.3751L85.7015 23.6895L85.8965 24.0001H86.2839V23.3751ZM83.7062 19.2688L84.2887 18.9544L84.2867 18.9513L83.7062 19.2688ZM82.3415 17.8063L81.9869 18.3378L81.9927 18.3412L81.9987 18.3444L82.3415 17.8063ZM78.4598 17.4407V16.8157H77.7859V17.4407H78.4598ZM78.4598 23.3751V24.0001H79.1337V23.3751H78.4598ZM76.0708 23.3751V9.6501H74.723V23.3751H76.0708ZM75.3969 10.2751H78.4598V9.0251H75.3969V10.2751ZM77.7859 9.6501V15.2188H79.1337V9.6501H77.7859ZM78.4598 15.8438H80.9465V14.5938H78.4598V15.8438ZM81.4824 15.5978L86.0617 10.0291L84.99 9.27109L80.4107 14.8398L81.4824 15.5978ZM85.5258 10.2751H88.8617V9.0251H85.5258V10.2751ZM88.3235 9.274L83.3197 15.4333L84.3961 16.1855L89.3999 10.0262L88.3235 9.274ZM83.5771 16.3777C83.9626 16.5415 84.3326 16.8014 84.6837 17.1758L85.7008 16.3556C85.2431 15.8675 84.7236 15.4899 84.1387 15.2413L83.5771 16.3777ZM84.7048 17.1973C85.0772 17.5592 85.4803 18.0833 85.9092 18.7885L87.0832 18.1743C86.6226 17.417 86.1564 16.7973 85.6797 16.3342L84.7048 17.1973ZM85.9134 18.7951L88.9764 23.6888L90.142 23.0613L87.0791 18.1676L85.9134 18.7951ZM89.5592 22.7501H86.2839V24.0001H89.5592V22.7501ZM86.8664 23.0607L84.2887 18.9544L83.1238 19.5833L85.7015 23.6895L86.8664 23.0607ZM84.2867 18.9513C83.8023 18.1895 83.2765 17.5927 82.6844 17.2683L81.9987 18.3444C82.2963 18.5075 82.6802 18.8857 83.1258 19.5863L84.2867 18.9513ZM82.6963 17.2749C82.1224 16.9455 81.3836 16.8157 80.5523 16.8157V18.0657C81.2575 18.0657 81.7116 18.1797 81.9869 18.3378L82.6963 17.2749ZM80.5523 16.8157H78.4598V18.0657H80.5523V16.8157ZM77.7859 17.4407V23.3751H79.1337V17.4407H77.7859ZM78.4598 22.7501H75.3969V24.0001H78.4598V22.7501ZM103.085 27.0313H102.411V27.6563H103.085V27.0313ZM103.085 23.3751H103.759V22.7501H103.085V23.3751ZM90.2875 23.3751H89.6135V24.0001H90.2875V23.3751ZM90.2875 9.6501V9.0251H89.6135V9.6501H90.2875ZM93.3504 9.6501H94.0243V9.0251H93.3504V9.6501ZM93.3504 21.1251H92.6765V21.7501H93.3504V21.1251ZM100.265 21.1251V21.7501H100.939V21.1251H100.265ZM100.265 9.6501V9.0251H99.5908V9.6501H100.265ZM103.328 9.6501H104.002V9.0251H103.328V9.6501ZM103.328 21.1251H102.654V21.7501H103.328V21.1251ZM105.693 21.1251H106.367V20.5001H105.693V21.1251ZM105.693 27.0313V27.6563H106.367V27.0313H105.693ZM103.759 27.0313V23.3751H102.411V27.0313H103.759ZM103.085 22.7501H90.2875V24.0001H103.085V22.7501ZM90.9614 23.3751V9.6501H89.6135V23.3751H90.9614ZM90.2875 10.2751H93.3504V9.0251H90.2875V10.2751ZM92.6765 9.6501V21.1251H94.0243V9.6501H92.6765ZM93.3504 21.7501H100.265V20.5001H93.3504V21.7501ZM100.939 21.1251V9.6501H99.5908V21.1251H100.939ZM100.265 10.2751H103.328V9.0251H100.265V10.2751ZM102.654 9.6501V21.1251H104.002V9.6501H102.654ZM103.328 21.7501H105.693V20.5001H103.328V21.7501ZM105.019 21.1251V27.0313H106.367V21.1251H105.019ZM105.693 26.4063H103.085V27.6563H105.693V26.4063Z" fill="#252525"/>
</g>
<path d="M39.6572 2H6.20706L2 10.3087H44.1224L39.6572 2Z" stroke="#2E2E2E" stroke-width="4" stroke-linecap="round" stroke-linejoin="round"/>
<path d="M39.6572 2H6.20706L2 10.3087H44.1224L39.6572 2Z" stroke="black" stroke-opacity="0.2" stroke-width="4" stroke-linecap="round" stroke-linejoin="round"/>
<path d="M2 10.3086L23.0612 35.8559" stroke="#2E2E2E" stroke-width="4" stroke-linecap="round" stroke-linejoin="round"/>
<path d="M2 10.3086L23.0612 35.8559" stroke="black" stroke-opacity="0.2" stroke-width="4" stroke-linecap="round" stroke-linejoin="round"/>
<path d="M44.1224 10.3086L23.0612 35.8559" stroke="#2E2E2E" stroke-width="4" stroke-linecap="round" stroke-linejoin="round"/>
<path d="M44.1224 10.3086L23.0612 35.8559" stroke="black" stroke-opacity="0.2" stroke-width="4" stroke-linecap="round" stroke-linejoin="round"/>
<path d="M15.0341 10.3086L30.1718 27.2301" stroke="#2E2E2E" stroke-width="4" stroke-linecap="round" stroke-linejoin="round"/>
<path d="M15.0341 10.3086L30.1718 27.2301" stroke="black" stroke-opacity="0.2" stroke-width="4" stroke-linecap="round" stroke-linejoin="round"/>
<defs>
<clipPath id="clip0_113_351">
<rect width="62" height="20" fill="white" transform="translate(44 9)"/>
</clipPath>
</defs>
</svg>
