<svg width="138" height="62" viewBox="0 0 138 62" fill="none" xmlns="http://www.w3.org/2000/svg">
<g clip-path="url(#clip0_202_11)">
<path d="M132.881 12.628H95.679L91 21.9122H137.847L132.881 12.628Z" stroke="white" stroke-width="3" stroke-linecap="round" stroke-linejoin="round"/>
<path d="M91 21.9122L114.424 50.4588" stroke="white" stroke-width="3" stroke-linecap="round" stroke-linejoin="round"/>
<path d="M137.847 21.9122L114.424 50.4588" stroke="white" stroke-width="3" stroke-linecap="round" stroke-linejoin="round"/>
<path d="M105.496 21.9122L122.332 40.8203" stroke="white" stroke-width="3" stroke-linecap="round" stroke-linejoin="round"/>
</g>
<path d="M3.645 53.728V23.758H7.2V27.673C7.86 26.323 8.835 25.273 10.125 24.523C11.445 23.743 12.975 23.353 14.715 23.353C16.665 23.353 18.36 23.818 19.8 24.748C21.27 25.648 22.395 26.953 23.175 28.663C23.985 30.343 24.39 32.353 24.39 34.693C24.39 37.003 23.985 39.013 23.175 40.723C22.395 42.403 21.27 43.708 19.8 44.638C18.36 45.568 16.665 46.033 14.715 46.033C13.035 46.033 11.535 45.658 10.215 44.908C8.895 44.158 7.92 43.123 7.29 41.803V53.728H3.645ZM13.95 43.108C15.99 43.108 17.625 42.388 18.855 40.948C20.085 39.478 20.7 37.393 20.7 34.693C20.7 31.963 20.085 29.878 18.855 28.438C17.625 26.998 15.99 26.278 13.95 26.278C11.91 26.278 10.275 26.998 9.045 28.438C7.815 29.878 7.2 31.963 7.2 34.693C7.2 37.393 7.815 39.478 9.045 40.948C10.275 42.388 11.91 43.108 13.95 43.108ZM30.3261 53.728L34.0611 45.268L24.8361 23.758H28.7961L36.0411 41.488L43.3311 23.758H47.1561L34.1511 53.728H30.3261ZM49.1098 45.628V23.758H52.7548V32.893H56.8498L64.0048 23.758H68.0098L60.4048 33.613C61.1848 33.913 61.8898 34.408 62.5198 35.098C63.1498 35.788 63.8548 36.778 64.6348 38.068L69.1348 45.628H65.2198L61.2598 39.013C60.5098 37.723 59.7898 36.868 59.0998 36.448C58.4098 36.028 57.4348 35.818 56.1748 35.818H52.7548V45.628H49.1098ZM89.4463 51.478V45.628H70.5463V23.758H74.1913V42.703H85.4863V23.758H89.1313V42.703H92.5963V51.478H89.4463Z" fill="white"/>
<defs>
<clipPath id="clip0_202_11">
<rect width="49" height="40" fill="white" transform="translate(89 11.628)"/>
</clipPath>
</defs>
</svg>
