<svg xmlns="http://www.w3.org/2000/svg" xmlns:xlink="http://www.w3.org/1999/xlink"><defs>
<clipPath id="clip0_230_124">
<rect width="35" height="39" fill="white"/>
</clipPath>

<clipPath id="clip0_230_113">
<rect width="40" height="40" fill="white"/>
</clipPath>

<clipPath id="clip0_2_356">
<rect width="20" height="20" fill="white"/>
</clipPath>

<clipPath id="clip0_230_128">
<rect width="31" height="44" fill="white"/>
</clipPath>

<clipPath id="clip0_2_83">
<rect width="143" height="120" fill="white"/>
</clipPath>
</defs><symbol id="arrow-right" viewBox="0 0 5 10"><g fill="none">
<path d="M0.476196 8.80957L4.28572 5.00005L0.476196 1.19052" stroke="currentColor" stroke-linejoin="round"/>
</g></symbol><symbol id="arrow-up" viewBox="0 0 14 8"><g fill="none">
<path fill-rule="evenodd" clip-rule="evenodd" d="M0.469668 7.5303C0.176777 7.2374 0.176777 6.7626 0.469668 6.4697L6.4697 0.469668C6.7626 0.176777 7.2374 0.176777 7.5303 0.469668L13.5303 6.4697C13.8232 6.7626 13.8232 7.2374 13.5303 7.5303C13.2374 7.8232 12.7626 7.8232 12.4697 7.5303L7 2.06066L1.53033 7.5303C1.23744 7.8232 0.762558 7.8232 0.469668 7.5303Z" fill="currentColor"/>
</g></symbol><symbol id="icon-burger" viewBox="0 0 32 18"><g fill="none">
<path d="M1 17H31" stroke="black" stroke-width="2" stroke-linecap="round"/>
<path d="M1 9H31" stroke="black" stroke-width="2" stroke-linecap="round"/>
<path d="M1 1H31" stroke="black" stroke-width="2" stroke-linecap="round"/>
</g></symbol><symbol id="icon-close" viewBox="0 0 20 20"><g fill="black"><path d="M.293 18.291a1 1 0 101.414 1.414L10 11.413l8.292 8.292a1 1 0 101.414-1.414l-8.292-8.292 8.292-8.292A1 1 0 1018.291.293L9.999 8.585 1.707.293A1 1 0 10.293 1.707L8.585 10 .293 18.291z"/></g></symbol><symbol id="icon-email" viewBox="0 0 35 39"><g fill="none">
<g clip-path="url(#clip0_230_124)">
<path d="M6.6 11.6902V19.0602L13 26.2702H22.43L29.63 18.8902V11.8902L33.63 15.6602V35.2202C33.63 35.2202 33.11 37.6202 28.83 37.4402C24.55 37.2602 4.3 37.7902 4.3 37.7902C4.3 37.7902 1.56 36.7902 1.56 35.3902C1.56 33.9902 2.24 15.6602 2.24 15.6602L6.6 11.6902Z" fill="#BE4F4F"/>
<path d="M13.5 19.4601C14.6546 20.1892 15.9767 20.6105 17.3403 20.684C18.7039 20.7576 20.0636 20.4808 21.29 19.8801C21.5056 19.7293 21.6612 19.5073 21.7295 19.2531C21.7977 18.999 21.7743 18.7289 21.6634 18.4903C21.5524 18.2517 21.361 18.0597 21.1226 17.9482C20.8843 17.8366 20.6143 17.8125 20.36 17.8801C19.4719 18.3169 18.4872 18.5203 17.4987 18.4713C16.5103 18.4224 15.5505 18.1225 14.71 17.6002C13.8925 17.0777 13.225 16.3516 12.7732 15.493C12.3213 14.6345 12.1008 13.6731 12.1331 12.7035C12.1654 11.7338 12.4496 10.7893 12.9576 9.96273C13.4656 9.13618 14.1799 8.45607 15.0304 7.98928C15.8809 7.52249 16.8383 7.2851 17.8083 7.30044C18.7784 7.31577 19.7278 7.58331 20.5631 8.07674C21.3984 8.57018 22.0909 9.27254 22.5726 10.1147C23.0542 10.9569 23.3083 11.91 23.31 12.8802C23.31 13.1772 23.192 13.4621 22.9819 13.6721C22.7719 13.8822 22.487 14.0001 22.19 14.0001C21.8929 14.0001 21.6081 13.8822 21.398 13.6721C21.188 13.4621 21.07 13.1772 21.07 12.8802C21.0679 12.1131 20.8027 11.37 20.3186 10.775C19.8346 10.18 19.161 9.76916 18.4104 9.61108C17.6598 9.453 16.8777 9.55727 16.1948 9.90649C15.5119 10.2557 14.9695 10.8287 14.6582 11.5297C14.347 12.2308 14.2857 13.0174 14.4847 13.7582C14.6836 14.4989 15.1308 15.149 15.7514 15.5998C16.3721 16.0505 17.1286 16.2746 17.8946 16.2346C18.6606 16.1946 19.3896 15.893 19.96 15.3801C20.5687 15.9371 21.3649 16.2441 22.19 16.2401C22.6316 16.2415 23.0691 16.1555 23.4774 15.9871C23.8856 15.8187 24.2565 15.5712 24.5688 15.259C24.8811 14.9467 25.1285 14.5758 25.2969 14.1675C25.4653 13.7593 25.5513 13.3218 25.55 12.8802C25.5561 11.5143 25.2053 10.1706 24.5324 8.98208C23.8594 7.79354 22.8877 6.80141 21.7133 6.104C20.539 5.40658 19.2028 5.02805 17.8371 5.00591C16.4715 4.98377 15.1238 5.31879 13.9274 5.97778C12.7311 6.63676 11.7277 7.59687 11.0165 8.76296C10.3054 9.92906 9.91125 11.2607 9.87311 12.626C9.83498 13.9913 10.1542 15.3429 10.7991 16.5468C11.444 17.7508 12.3923 18.7654 13.55 19.4901L13.5 19.4601ZM17.72 14.0001C17.4229 14.0001 17.1381 13.8822 16.928 13.6721C16.718 13.4621 16.6 13.1772 16.6 12.8802C16.6 12.5831 16.718 12.2982 16.928 12.0882C17.1381 11.8781 17.4229 11.7602 17.72 11.7602C17.995 11.7632 18.2595 11.8664 18.4638 12.0505C18.6682 12.2346 18.7984 12.4869 18.83 12.7602C18.8149 12.8596 18.8149 12.9607 18.83 13.0601C18.7871 13.3233 18.6518 13.5625 18.4483 13.7349C18.2449 13.9072 17.9866 14.0012 17.72 14.0001Z" fill="#52545C"/>
<path d="M34.51 15.24C34.5079 14.9436 34.3893 14.6599 34.18 14.45L30 10.3V1.66003C30 1.36299 29.882 1.07811 29.6719 0.868073C29.4619 0.658032 29.177 0.540039 28.88 0.540039H6.51997C6.22293 0.540039 5.93806 0.658032 5.72802 0.868073C5.51797 1.07811 5.39997 1.36299 5.39997 1.66003V10.3L1.25998 14.45C1.05944 14.66 0.94829 14.9397 0.94997 15.23V35.38C0.952608 36.2704 1.30746 37.1234 1.93701 37.753C2.56656 38.3825 3.41965 38.7374 4.30997 38.74H31.17C32.0603 38.7374 32.9134 38.3825 33.5429 37.753C34.1725 37.1234 34.5273 36.2704 34.53 35.38V15.24H34.51ZM31.8 15.24L30 17V13.45L31.8 15.24ZM27.8 2.78003V10.78V19.28L21.74 25.34H13.74L7.67997 19.28V10.78V2.78003H27.8ZM5.39997 17L3.62997 15.22L5.39997 13.45V17ZM3.16997 34.91V17.91L11.66 26.4L3.16997 34.91ZM4.74997 36.49L13.75 27.49H21.75L30.75 36.49H4.74997ZM32.27 34.91L23.78 26.41L32.27 17.92V34.91Z" fill="#52545C"/>
</g>

</g></symbol><symbol id="icon-phone" viewBox="0 0 40 40"><g fill="none">
<g clip-path="url(#clip0_230_113)">
<path d="M4.61996 4.12012L12.73 11.3101L10.89 16.0501L22.98 28.4401L27.41 27.3701L35.37 35.0201L29.09 38.5401L20.83 36.5501L2.93996 18.1901L0.949951 10.5501L4.61996 4.12012Z" fill="#BE4F4F"/>
<path d="M38.11 29.2201L33.29 24.4001C32.6506 23.7613 31.7838 23.4025 30.88 23.4025C29.9762 23.4025 29.1094 23.7613 28.47 24.4001L26.28 26.5901C25.7944 27.0749 25.1362 27.3473 24.45 27.3473C23.7638 27.3473 23.1056 27.0749 22.62 26.5901L13.13 17.0901C12.6451 16.6045 12.3728 15.9463 12.3728 15.2601C12.3728 14.5739 12.6451 13.9157 13.13 13.4301L15.32 11.2401C15.9587 10.6007 16.3175 9.73387 16.3175 8.83009C16.3175 7.9263 15.9587 7.05948 15.32 6.42008L10.5 1.61008C9.86059 0.97134 8.99376 0.612549 8.08998 0.612549C7.1862 0.612549 6.31938 0.97134 5.67999 1.61008L3.91998 3.35008C1.61965 5.65917 0.328064 8.78572 0.328064 12.0451C0.328064 15.3044 1.61965 18.431 3.91998 20.7401L19 35.8001C21.3065 38.1053 24.434 39.4003 27.695 39.4003C30.956 39.4003 34.0835 38.1053 36.39 35.8001L38.14 34.0401C38.7748 33.3967 39.1282 32.5277 39.1225 31.6239C39.1169 30.7201 38.7527 29.8555 38.11 29.2201ZM31.68 26.0001L36.5 30.8201C36.6067 30.9252 36.6915 31.0505 36.7493 31.1887C36.8072 31.3269 36.837 31.4753 36.837 31.6251C36.837 31.7749 36.8072 31.9232 36.7493 32.0614C36.6915 32.1996 36.6067 32.3249 36.5 32.4301L35.7 33.2301L29.27 26.8001L30.08 26.0001C30.185 25.8949 30.3096 25.8114 30.4469 25.7544C30.5842 25.6975 30.7314 25.6681 30.88 25.6681C31.0286 25.6681 31.1758 25.6975 31.313 25.7544C31.4503 25.8114 31.575 25.8949 31.68 26.0001ZM8.88998 3.22009L13.71 8.00008C13.8152 8.10505 13.8987 8.22974 13.9556 8.36702C14.0126 8.5043 14.0419 8.65146 14.0419 8.80009C14.0419 8.94871 14.0126 9.09587 13.9556 9.23315C13.8987 9.37042 13.8152 9.49512 13.71 9.60008L12.91 10.4101L6.47999 4.00008L7.27998 3.21008C7.49626 3.0007 7.78601 2.88447 8.08703 2.88634C8.38805 2.88821 8.67633 3.00803 8.88998 3.22009ZM20.58 34.2201L5.57999 19.1601C3.81077 17.3976 2.76502 15.0369 2.64844 12.5424C2.53185 10.0478 3.35286 7.59989 4.94998 5.68008L11.36 12.0801C10.5412 13.0047 10.1069 14.2074 10.1459 15.4418C10.1849 16.6762 10.6944 17.849 11.57 18.7201L21 28.2001C21.8722 29.0735 23.0447 29.5814 24.2784 29.6204C25.5121 29.6595 26.7143 29.2266 27.64 28.4101L34.04 34.8201C32.1215 36.4115 29.6778 37.2291 27.1879 37.1125C24.698 36.996 22.3414 35.9537 20.58 34.1901V34.2201Z" fill="#52545C"/>
</g>

</g></symbol><symbol id="icon-phone1" viewBox="0 0 20 20"><g fill="none">
<g clip-path="url(#clip0_2_356)">
<path d="M18.3333 14.0999V16.5999C18.3343 16.832 18.2867 17.0617 18.1937 17.2744C18.1008 17.487 17.9644 17.6779 17.7934 17.8348C17.6224 17.9917 17.4205 18.1112 17.2006 18.1855C16.9808 18.2599 16.7478 18.2875 16.5167 18.2666C13.9523 17.988 11.4892 17.1117 9.32498 15.7083C7.31151 14.4288 5.60443 12.7217 4.32499 10.7083C2.91663 8.53426 2.04019 6.05908 1.76665 3.48325C1.74583 3.25281 1.77321 3.02055 1.84707 2.80127C1.92092 2.58199 2.03963 2.38049 2.19562 2.2096C2.35162 2.03871 2.54149 1.90218 2.75314 1.80869C2.9648 1.7152 3.1936 1.6668 3.42499 1.66658H5.92499C6.32941 1.6626 6.72148 1.80582 7.02812 2.06953C7.33476 2.33324 7.53505 2.69946 7.59165 3.09992C7.69717 3.89997 7.89286 4.68552 8.17499 5.44158C8.2871 5.73985 8.31137 6.06401 8.24491 6.37565C8.17844 6.68729 8.02404 6.97334 7.79998 7.19992L6.74165 8.25825C7.92795 10.3445 9.65536 12.072 11.7417 13.2583L12.8 12.1999C13.0266 11.9759 13.3126 11.8215 13.6243 11.755C13.9359 11.6885 14.26 11.7128 14.5583 11.8249C15.3144 12.107 16.0999 12.3027 16.9 12.4083C17.3048 12.4654 17.6745 12.6693 17.9388 12.9812C18.203 13.2931 18.3435 13.6912 18.3333 14.0999Z" stroke="#B00000" stroke-width="2" stroke-linecap="round" stroke-linejoin="round"/>
</g>

</g></symbol><symbol id="icon-pin" viewBox="0 0 31 44"><g fill="none">
<g clip-path="url(#clip0_230_128)">
<path d="M28.77 10.58L25.1 4.92L20 2.63L20.1 2.02L18.21 1.82001L17.96 1.71001V1.8L15.38 1.53V1.25L14.81 1.48L12.63 1.25L12.84 2.25L8.99999 3.7L2.41999 10.13L2.12 19.3L15.58 41.3L21.58 32.3L26.93 23.58L29.23 17.46L28.77 10.58ZM18.36 21.29L12.55 20.68L9.48999 16.24L11.17 10.43L14.63 9.12L16.99 9.50999L20.05 11L21.58 17.12L18.36 21.29Z" fill="#BE4F4F"/>
<path d="M15.64 0.400146C12.9721 0.403634 10.3534 1.11862 8.05384 2.4714C5.75431 3.82417 3.8572 5.76579 2.55808 8.09605C1.25896 10.4263 0.604849 13.0609 0.663195 15.7282C0.721541 18.3955 1.49023 20.9989 2.89 23.2701L14.79 42.4501C14.9021 42.6304 15.0582 42.7791 15.2436 42.8824C15.4291 42.9856 15.6378 43.0399 15.85 43.0401C16.0647 43.0407 16.2758 42.9847 16.462 42.8776C16.6481 42.7704 16.8026 42.6161 16.91 42.4301L28.51 23.0702C29.864 20.7945 30.5915 18.201 30.6185 15.5531C30.6455 12.9052 29.9711 10.2974 28.6638 7.99464C27.3564 5.69185 25.4628 3.77618 23.1753 2.44228C20.8878 1.10839 18.288 0.403806 15.64 0.400146ZM26.38 21.7901L15.83 39.3901L5 22.0001C3.83653 20.1151 3.19531 17.9546 3.14208 15.7401C3.08885 13.5256 3.62552 11.3368 4.69708 9.39805C5.76864 7.45932 7.33653 5.84046 9.23999 4.70744C11.1434 3.57441 13.314 2.968 15.5291 2.95037C17.7441 2.93274 19.9241 3.50453 21.8453 4.60711C23.7666 5.70969 25.36 7.30341 26.4623 9.22483C27.5646 11.1463 28.136 13.3263 28.1181 15.5413C28.1001 17.7564 27.4933 19.9269 26.36 21.8301L26.38 21.7901Z" fill="#52545C"/>
<path d="M15.64 7.90015C14.1562 7.90015 12.7058 8.34027 11.4722 9.16483C10.2386 9.98938 9.27733 11.1613 8.70996 12.5323C8.1426 13.9034 7.99466 15.4119 8.28486 16.867C8.57506 18.3221 9.29036 19.6585 10.3403 20.707C11.3902 21.7555 12.7275 22.469 14.183 22.7573C15.6385 23.0455 17.1468 22.8956 18.5171 22.3264C19.8873 21.7572 21.058 20.7943 21.8809 19.5596C22.7038 18.325 23.142 16.8739 23.14 15.3902C23.1374 13.4028 22.346 11.4977 20.9398 10.0933C19.5335 8.68895 17.6274 7.90014 15.64 7.90015ZM15.64 20.4001C14.6511 20.4001 13.6844 20.1069 12.8622 19.5575C12.0399 19.0081 11.399 18.2272 11.0206 17.3136C10.6422 16.3999 10.5432 15.3946 10.7361 14.4247C10.929 13.4548 11.4052 12.5639 12.1045 11.8646C12.8037 11.1654 13.6947 10.6892 14.6646 10.4962C15.6345 10.3033 16.6398 10.4023 17.5534 10.7808C18.4671 11.1592 19.248 11.8001 19.7974 12.6223C20.3468 13.4445 20.64 14.4112 20.64 15.4001C20.64 16.7262 20.1132 17.998 19.1755 18.9357C18.2379 19.8734 16.9661 20.4001 15.64 20.4001Z" fill="#52545C"/>
</g>

</g></symbol><symbol id="icon-quotes" viewBox="0 0 143 120"><g fill="none">
<g opacity="0.3" clip-path="url(#clip0_2_83)">
<path fill-rule="evenodd" clip-rule="evenodd" d="M142.373 18.7419C121.049 29.1541 110.387 41.3882 110.387 55.4447C119.476 56.4859 126.992 60.1735 132.934 66.5076C138.877 72.8417 141.849 80.1735 141.849 88.5033C141.849 97.3536 138.965 104.816 133.197 110.889C127.428 116.963 120.175 120 111.435 120C101.647 120 93.1701 116.052 86.0037 108.156C78.8374 100.26 75.2542 90.6725 75.2542 79.3926C75.2542 45.553 94.306 19.089 132.41 0L142.373 18.7419ZM67.1186 18.7419C45.6196 29.1541 34.8702 41.3882 34.8702 55.4447C44.134 56.4859 51.7373 60.1735 57.6801 66.5076C63.6229 72.8417 66.5943 80.1735 66.5943 88.5033C66.5943 97.3536 63.6666 104.816 57.8112 110.889C51.9557 116.963 44.6584 120 35.919 120C26.1308 120 17.6973 116.052 10.6184 108.156C3.53942 100.26 0 90.6725 0 79.3926C0 45.553 18.9643 19.089 56.8935 0L67.1186 18.7419Z" fill="#B00000"/>
</g>

</g></symbol></svg>