<svg width="40" height="40" viewBox="0 0 40 40" fill="none" xmlns="http://www.w3.org/2000/svg"><g clip-path="url(#clip0_230_113)"><path d="M4.61996 4.12012L12.73 11.3101L10.89 16.0501L22.98 28.4401L27.41 27.3701L35.37 35.0201L29.09 38.5401L20.83 36.5501L2.93996 18.1901L0.949951 10.5501L4.61996 4.12012Z" fill="#BE4F4F"/><path d="M38.11 29.2201L33.29 24.4001C32.6506 23.7613 31.7838 23.4025 30.88 23.4025C29.9762 23.4025 29.1094 23.7613 28.47 24.4001L26.28 26.5901C25.7944 27.0749 25.1362 27.3473 24.45 27.3473C23.7638 27.3473 23.1056 27.0749 22.62 26.5901L13.13 17.0901C12.6451 16.6045 12.3728 15.9463 12.3728 15.2601C12.3728 14.5739 12.6451 13.9157 13.13 13.4301L15.32 11.2401C15.9587 10.6007 16.3175 9.73387 16.3175 8.83009C16.3175 7.9263 15.9587 7.05948 15.32 6.42008L10.5 1.61008C9.86059 0.97134 8.99376 0.612549 8.08998 0.612549C7.1862 0.612549 6.31938 0.97134 5.67999 1.61008L3.91998 3.35008C1.61965 5.65917 0.328064 8.78572 0.328064 12.0451C0.328064 15.3044 1.61965 18.431 3.91998 20.7401L19 35.8001C21.3065 38.1053 24.434 39.4003 27.695 39.4003C30.956 39.4003 34.0835 38.1053 36.39 35.8001L38.14 34.0401C38.7748 33.3967 39.1282 32.5277 39.1225 31.6239C39.1169 30.7201 38.7527 29.8555 38.11 29.2201ZM31.68 26.0001L36.5 30.8201C36.6067 30.9252 36.6915 31.0505 36.7493 31.1887C36.8072 31.3269 36.837 31.4753 36.837 31.6251C36.837 31.7749 36.8072 31.9232 36.7493 32.0614C36.6915 32.1996 36.6067 32.3249 36.5 32.4301L35.7 33.2301L29.27 26.8001L30.08 26.0001C30.185 25.8949 30.3096 25.8114 30.4469 25.7544C30.5842 25.6975 30.7314 25.6681 30.88 25.6681C31.0286 25.6681 31.1758 25.6975 31.313 25.7544C31.4503 25.8114 31.575 25.8949 31.68 26.0001ZM8.88998 3.22009L13.71 8.00008C13.8152 8.10505 13.8987 8.22974 13.9556 8.36702C14.0126 8.5043 14.0419 8.65146 14.0419 8.80009C14.0419 8.94871 14.0126 9.09587 13.9556 9.23315C13.8987 9.37042 13.8152 9.49512 13.71 9.60008L12.91 10.4101L6.47999 4.00008L7.27998 3.21008C7.49626 3.0007 7.78601 2.88447 8.08703 2.88634C8.38805 2.88821 8.67633 3.00803 8.88998 3.22009ZM20.58 34.2201L5.57999 19.1601C3.81077 17.3976 2.76502 15.0369 2.64844 12.5424C2.53185 10.0478 3.35286 7.59989 4.94998 5.68008L11.36 12.0801C10.5412 13.0047 10.1069 14.2074 10.1459 15.4418C10.1849 16.6762 10.6944 17.849 11.57 18.7201L21 28.2001C21.8722 29.0735 23.0447 29.5814 24.2784 29.6204C25.5121 29.6595 26.7143 29.2266 27.64 28.4101L34.04 34.8201C32.1215 36.4115 29.6778 37.2291 27.1879 37.1125C24.698 36.996 22.3414 35.9537 20.58 34.1901V34.2201Z" fill="#52545C"/></g><defs><clipPath id="clip0_230_113"><rect width="40" height="40" fill="white"/></clipPath></defs></svg>