<svg width="35" height="39" viewBox="0 0 35 39" fill="none" xmlns="http://www.w3.org/2000/svg">
<g clip-path="url(#clip0_230_124)">
<path d="M6.6 11.6902V19.0602L13 26.2702H22.43L29.63 18.8902V11.8902L33.63 15.6602V35.2202C33.63 35.2202 33.11 37.6202 28.83 37.4402C24.55 37.2602 4.3 37.7902 4.3 37.7902C4.3 37.7902 1.56 36.7902 1.56 35.3902C1.56 33.9902 2.24 15.6602 2.24 15.6602L6.6 11.6902Z" fill="#BE4F4F"/>
<path d="M13.5 19.4601C14.6546 20.1892 15.9767 20.6105 17.3403 20.684C18.7039 20.7576 20.0636 20.4808 21.29 19.8801C21.5056 19.7293 21.6612 19.5073 21.7295 19.2531C21.7977 18.999 21.7743 18.7289 21.6634 18.4903C21.5524 18.2517 21.361 18.0597 21.1226 17.9482C20.8843 17.8366 20.6143 17.8125 20.36 17.8801C19.4719 18.3169 18.4872 18.5203 17.4987 18.4713C16.5103 18.4224 15.5505 18.1225 14.71 17.6002C13.8925 17.0777 13.225 16.3516 12.7732 15.493C12.3213 14.6345 12.1008 13.6731 12.1331 12.7035C12.1654 11.7338 12.4496 10.7893 12.9576 9.96273C13.4656 9.13618 14.1799 8.45607 15.0304 7.98928C15.8809 7.52249 16.8383 7.2851 17.8083 7.30044C18.7784 7.31577 19.7278 7.58331 20.5631 8.07674C21.3984 8.57018 22.0909 9.27254 22.5726 10.1147C23.0542 10.9569 23.3083 11.91 23.31 12.8802C23.31 13.1772 23.192 13.4621 22.9819 13.6721C22.7719 13.8822 22.487 14.0001 22.19 14.0001C21.8929 14.0001 21.6081 13.8822 21.398 13.6721C21.188 13.4621 21.07 13.1772 21.07 12.8802C21.0679 12.1131 20.8027 11.37 20.3186 10.775C19.8346 10.18 19.161 9.76916 18.4104 9.61108C17.6598 9.453 16.8777 9.55727 16.1948 9.90649C15.5119 10.2557 14.9695 10.8287 14.6582 11.5297C14.347 12.2308 14.2857 13.0174 14.4847 13.7582C14.6836 14.4989 15.1308 15.149 15.7514 15.5998C16.3721 16.0505 17.1286 16.2746 17.8946 16.2346C18.6606 16.1946 19.3896 15.893 19.96 15.3801C20.5687 15.9371 21.3649 16.2441 22.19 16.2401C22.6316 16.2415 23.0691 16.1555 23.4774 15.9871C23.8856 15.8187 24.2565 15.5712 24.5688 15.259C24.8811 14.9467 25.1285 14.5758 25.2969 14.1675C25.4653 13.7593 25.5513 13.3218 25.55 12.8802C25.5561 11.5143 25.2053 10.1706 24.5324 8.98208C23.8594 7.79354 22.8877 6.80141 21.7133 6.104C20.539 5.40658 19.2028 5.02805 17.8371 5.00591C16.4715 4.98377 15.1238 5.31879 13.9274 5.97778C12.7311 6.63676 11.7277 7.59687 11.0165 8.76296C10.3054 9.92906 9.91125 11.2607 9.87311 12.626C9.83498 13.9913 10.1542 15.3429 10.7991 16.5468C11.444 17.7508 12.3923 18.7654 13.55 19.4901L13.5 19.4601ZM17.72 14.0001C17.4229 14.0001 17.1381 13.8822 16.928 13.6721C16.718 13.4621 16.6 13.1772 16.6 12.8802C16.6 12.5831 16.718 12.2982 16.928 12.0882C17.1381 11.8781 17.4229 11.7602 17.72 11.7602C17.995 11.7632 18.2595 11.8664 18.4638 12.0505C18.6682 12.2346 18.7984 12.4869 18.83 12.7602C18.8149 12.8596 18.8149 12.9607 18.83 13.0601C18.7871 13.3233 18.6518 13.5625 18.4483 13.7349C18.2449 13.9072 17.9866 14.0012 17.72 14.0001Z" fill="#52545C"/>
<path d="M34.51 15.24C34.5079 14.9436 34.3893 14.6599 34.18 14.45L30 10.3V1.66003C30 1.36299 29.882 1.07811 29.6719 0.868073C29.4619 0.658032 29.177 0.540039 28.88 0.540039H6.51997C6.22293 0.540039 5.93806 0.658032 5.72802 0.868073C5.51797 1.07811 5.39997 1.36299 5.39997 1.66003V10.3L1.25998 14.45C1.05944 14.66 0.94829 14.9397 0.94997 15.23V35.38C0.952608 36.2704 1.30746 37.1234 1.93701 37.753C2.56656 38.3825 3.41965 38.7374 4.30997 38.74H31.17C32.0603 38.7374 32.9134 38.3825 33.5429 37.753C34.1725 37.1234 34.5273 36.2704 34.53 35.38V15.24H34.51ZM31.8 15.24L30 17V13.45L31.8 15.24ZM27.8 2.78003V10.78V19.28L21.74 25.34H13.74L7.67997 19.28V10.78V2.78003H27.8ZM5.39997 17L3.62997 15.22L5.39997 13.45V17ZM3.16997 34.91V17.91L11.66 26.4L3.16997 34.91ZM4.74997 36.49L13.75 27.49H21.75L30.75 36.49H4.74997ZM32.27 34.91L23.78 26.41L32.27 17.92V34.91Z" fill="#52545C"/>
</g>
<defs>
<clipPath id="clip0_230_124">
<rect width="35" height="39" fill="white"/>
</clipPath>
</defs>
</svg>
