<svg width="31" height="44" viewBox="0 0 31 44" fill="none" xmlns="http://www.w3.org/2000/svg">
<g clip-path="url(#clip0_230_128)">
<path d="M28.77 10.58L25.1 4.92L20 2.63L20.1 2.02L18.21 1.82001L17.96 1.71001V1.8L15.38 1.53V1.25L14.81 1.48L12.63 1.25L12.84 2.25L8.99999 3.7L2.41999 10.13L2.12 19.3L15.58 41.3L21.58 32.3L26.93 23.58L29.23 17.46L28.77 10.58ZM18.36 21.29L12.55 20.68L9.48999 16.24L11.17 10.43L14.63 9.12L16.99 9.50999L20.05 11L21.58 17.12L18.36 21.29Z" fill="#BE4F4F"/>
<path d="M15.64 0.400146C12.9721 0.403634 10.3534 1.11862 8.05384 2.4714C5.75431 3.82417 3.8572 5.76579 2.55808 8.09605C1.25896 10.4263 0.604849 13.0609 0.663195 15.7282C0.721541 18.3955 1.49023 20.9989 2.89 23.2701L14.79 42.4501C14.9021 42.6304 15.0582 42.7791 15.2436 42.8824C15.4291 42.9856 15.6378 43.0399 15.85 43.0401C16.0647 43.0407 16.2758 42.9847 16.462 42.8776C16.6481 42.7704 16.8026 42.6161 16.91 42.4301L28.51 23.0702C29.864 20.7945 30.5915 18.201 30.6185 15.5531C30.6455 12.9052 29.9711 10.2974 28.6638 7.99464C27.3564 5.69185 25.4628 3.77618 23.1753 2.44228C20.8878 1.10839 18.288 0.403806 15.64 0.400146ZM26.38 21.7901L15.83 39.3901L5 22.0001C3.83653 20.1151 3.19531 17.9546 3.14208 15.7401C3.08885 13.5256 3.62552 11.3368 4.69708 9.39805C5.76864 7.45932 7.33653 5.84046 9.23999 4.70744C11.1434 3.57441 13.314 2.968 15.5291 2.95037C17.7441 2.93274 19.9241 3.50453 21.8453 4.60711C23.7666 5.70969 25.36 7.30341 26.4623 9.22483C27.5646 11.1463 28.136 13.3263 28.1181 15.5413C28.1001 17.7564 27.4933 19.9269 26.36 21.8301L26.38 21.7901Z" fill="#52545C"/>
<path d="M15.64 7.90015C14.1562 7.90015 12.7058 8.34027 11.4722 9.16483C10.2386 9.98938 9.27733 11.1613 8.70996 12.5323C8.1426 13.9034 7.99466 15.4119 8.28486 16.867C8.57506 18.3221 9.29036 19.6585 10.3403 20.707C11.3902 21.7555 12.7275 22.469 14.183 22.7573C15.6385 23.0455 17.1468 22.8956 18.5171 22.3264C19.8873 21.7572 21.058 20.7943 21.8809 19.5596C22.7038 18.325 23.142 16.8739 23.14 15.3902C23.1374 13.4028 22.346 11.4977 20.9398 10.0933C19.5335 8.68895 17.6274 7.90014 15.64 7.90015ZM15.64 20.4001C14.6511 20.4001 13.6844 20.1069 12.8622 19.5575C12.0399 19.0081 11.399 18.2272 11.0206 17.3136C10.6422 16.3999 10.5432 15.3946 10.7361 14.4247C10.929 13.4548 11.4052 12.5639 12.1045 11.8646C12.8037 11.1654 13.6947 10.6892 14.6646 10.4962C15.6345 10.3033 16.6398 10.4023 17.5534 10.7808C18.4671 11.1592 19.248 11.8001 19.7974 12.6223C20.3468 13.4445 20.64 14.4112 20.64 15.4001C20.64 16.7262 20.1132 17.998 19.1755 18.9357C18.2379 19.8734 16.9661 20.4001 15.64 20.4001Z" fill="#52545C"/>
</g>
<defs>
<clipPath id="clip0_230_128">
<rect width="31" height="44" fill="white"/>
</clipPath>
</defs>
</svg>
